M48
;Layer_Color=9474304
;FILE_FORMAT=4:4
METRIC,LZ
;TYPE=PLATED
T01F00S00C0.2032
T02F00S00C0.2540
T03F00S00C0.3810
T04F00S00C0.5080
T05F00S00C0.7112
T06F00S00C0.7620
T07F00S00C0.9000
T08F00S00C1.0000
T09F00S00C1.0200
T10F00S00C1.1000
T11F00S00C1.2700
T12F00S00C1.3000
T13F00S00C1.3208
T14F00S00C1.5000
T15F00S00C1.6000
T16F00S00C2.0000
T17F00S00C3.3020
;TYPE=NON_PLATED
T18F00S00C2.9464
%
T01
X009398Y004191
X0094996Y0042037
X0101219Y0051181
X0092456Y0050546
X00624586Y0051562
X00602742Y0050419
X00625141Y00446739
X0057023Y00361442
X00452374Y00492022
X0094488Y0055626
X0130937Y0067056
X0131445Y0068199
X0131318Y0069993
Y0070993
Y0071993
Y0072993
X0130937Y0074295
X0128778Y0069342
X01143Y008763
X013462Y006604
X0127889Y0119507
X0122047Y0118364
X0113538Y0119761
X0106299Y0119634
X0108585Y0107823
X0111506
T02
X009779Y0006096
X0098171Y0008255
X0100711
X0101981
Y0007493
X0106299Y0009144
X0107442
Y0010668
X0106299
X00963422Y00106426
Y00115316
X00954532
Y00106426
X0126746Y0013462
X0127508
X012827
Y0014224
X0127508
X0126746
X0136017Y0019939
Y002159
Y0023241
X0134112Y0030099
Y0030861
Y0031623
X013335
Y0030861
Y0030099
X0136652Y003175
Y003302
X01357522Y00530752
X0145542Y0051689
X0145415Y004572
X0132588Y0031623
Y0030861
Y0030099
X0128016Y0028448
X0132715Y0023241
Y002159
Y0019939
X0123571Y0019685
Y0021336
Y0022987
X0120269
Y0021336
Y0019685
X0126746Y0014986
X0127508
X012827
X0106807Y0022733
X0106172
X0105537
X0104902
X0104267
X007112Y0023241
X0070231
Y0022098
X007112
X0068707Y0026035
X0066167
X00649224Y00260604
X00642366Y00260096
X0064262Y00252984
X0063373Y0023368
Y0022606
Y0021844
X0062738Y0022225
Y0022987
X0060579Y0023368
X0057785Y0024892
Y0026543
Y0028194
X0054737
Y0026543
Y0024892
X0060198Y0030734
X0061849
X0067056Y0029464
Y0028829
X00377952Y0022098
X003302Y0032766
Y0034417
Y0036068
X0029718
Y0034417
Y0032766
X0051181Y0086614
X0056007Y0078232
X00656336Y00781558
X0064135Y0082296
X0064262Y0084709
X00649478Y00858012
X00664464Y0083185
X0068834Y008382
X0068961Y0082042
X0069469Y0081153
X0070739
X00735656Y00810718
X00751912Y0081079
X00750896Y00822259
X0076073Y0083071
X00763016Y00862584
X0073406Y0086106
Y008509
Y0084074
X007239
X0071374
Y008509
X007239
Y0086106
Y0087122
Y0088138
X0071374
Y0087122
Y0086106
X0073406Y0087122
Y0088138
X0075184Y0090932
X0079883Y00906352
X0081407Y00875284
X00840232Y00868172
X00813308Y00833882
X0080772Y0077343
X0078359Y0072517
X0076581
Y0069977
X00786852Y00701
X0068961Y0070104
X0066802
Y0072644
X0068961
X00739172Y00781082
X0067056Y00880364
X00679433Y00893163
X00651764Y00901192
X0063246
X0069049Y0092075
X01185901Y00925746
X0144018Y0081026
Y0077216
X0094488Y0122174
X00800608Y00956056
X00785114Y0097028
T03
X0136271Y0051562
X0139954Y0053467
X00985827Y00505767
X0097282Y0050927
Y004191
X0096012
X0061468Y0043307
X00573278Y00459994
X00537718Y00317246
X00523748
X00486664Y00319024
X0027178Y0032893
X0025654
X0021844Y0034798
X0023368Y0022352
X0024384Y0023368
X0025654
X0076708Y00852932
X00768354Y00891192
X00772562Y00899816
X0076073Y0091821
X0095631Y0092329
X0100584Y00908685
X0110871Y0089789
X0116459Y0089916
X0117221Y0090678
X01183157Y00877019
X01189324Y00870616
X0127Y00889
Y0090424
Y0091948
X0129032
Y0090424
Y00889
X0131064
Y0090424
Y0091948
X0133096
Y0090424
Y00889
X01367155Y0056134
X0135636Y0054102
X010541Y0113792
X0092837Y0111887
X009017Y0109601
X0079883Y0109982
X0092964Y0119253
T04
X0127508Y0041656
X0045974Y0086487
X00459843Y00887571
X01397Y009398
X0114754Y00964601
X0102054
X009652Y01061501
X0102054Y01158401
X0114754Y0115902
X0127454Y01158401
X00541123Y0095123
T05
X0014732Y0010414
X0097155Y00762
X01094286Y00759914
X0099822Y0124206
T06
X0103124Y0040259
X0089408Y0049022
X0065151Y0046736
X00637794Y00366268
X005715Y0030607
X0043942Y0053213
X0068326Y0115443
X0047752Y0123698
X0045212
X0042672
X0040132
X002159Y0112268
X001905
X001651
X001778Y0109728
X002032
X001524
X00127
X001397Y0112268
T07
X0068239Y0119109
X0070739
X0073239
T08
X009531Y0031369
X010281
X0036576Y006096
X0029076
T09
X0127Y006223
X012954
X0133858
X0136398
X0138938
X0102235Y0126873
X0099695
T10
X0045974Y0081534
X0048514
X0051054
X0053594
X0053721Y0090297
X0051181
X0048641
X0056769Y009017
X0059309
Y0093091
X0056769
X0119634Y0076454
X0122174
X0124714
T11
X0025908Y0004064
Y0006858
Y0009652
X0068834Y000889
X007239
X0070612Y0011684
X0009144Y0055372
T12
X0016209Y0007493
X0021209
X0130937Y0005334
X0135937
X000635Y0050292
Y0055292
X0147447Y0066929
Y0071929
T13
X0070358Y00450088
X0084582
T14
X0146939Y0038995
X0006604Y0043304
Y0020704
X0146939Y0061595
T15
X0113284Y0072898
Y0077978
X0148844Y0079756
X014605Y0085852
T16
X0032893Y000508
X0041143
X0049393
X0071506Y0004064
X0079756
X0088006
X0141732Y0022225
Y0030475
T17
X002286Y0118618
X001143
T18
X000508Y000508
X014732
X0147828Y0124206
X0004572Y0124968
M30
